<svg xmlns="http://www.w3.org/2000/svg" viewBox="0 0 53.59 53.59"><defs><style>.cls-1{fill:#e6e132;}</style></defs><g id="Livello_2" data-name="Livello 2"><g id="Livello_1-2" data-name="Livello 1"><path class="cls-1" d="M26.79,0a26.8,26.8,0,1,0,26.8,26.79A26.8,26.8,0,0,0,26.79,0ZM18.41,21.07a3.08,3.08,0,0,1,3,.83c.7.69,1.38,1.4,2.07,2.11.21-.23.13-.44.13-.63V9.68a3.21,3.21,0,1,1,6.41-.15c0,4.56,0,9.13,0,13.7v.59l.14.08c.58-.59,1.16-1.19,1.75-1.78a3.22,3.22,0,1,1,4.56,4.53L29.34,33.9a3.21,3.21,0,0,1-4.94,0c-2.49-2.48-5-5-7.45-7.44A3.19,3.19,0,0,1,18.41,21.07ZM39.5,43.29H26.81c-4.26,0-8.51,0-12.76,0a3.22,3.22,0,1,1,.16-6.44H39.39A3.23,3.23,0,0,1,42.75,40,3.18,3.18,0,0,1,39.5,43.29Z"/></g></g></svg>