<svg xmlns="http://www.w3.org/2000/svg" viewBox="0 0 58.11 67.45"><defs><style>.cls-1{fill:#e6e132;}</style></defs><g id="Livello_2" data-name="Livello 2"><g id="Livello_1-2" data-name="Livello 1"><path class="cls-1" d="M29.05,0H52.79a9.4,9.4,0,0,1,2.42.26,3.46,3.46,0,0,1,2,1.35,4,4,0,0,1,.65,1.57,10.07,10.07,0,0,1,.2,2q0,23.5,0,47a6.91,6.91,0,0,1-.35,2.47,2.88,2.88,0,0,1-.88,1.22,9.22,9.22,0,0,1-2.32,1.23l-3.8,1.59-3.69,1.54-3.75,1.57L40.38,63l-3.74,1.57-2.9,1.22c-.93.39-1.85.77-2.77,1.18a4.27,4.27,0,0,1-3.92,0c-.9-.42-1.83-.78-2.74-1.17-1.14-.49-2.28-1-3.43-1.44l-5-2.07L10.43,60C8.61,59.22,6.79,58.47,5,57.7c-1-.42-2-.78-3-1.29A3.42,3.42,0,0,1,.52,55a3.32,3.32,0,0,1-.38-1.11A13.83,13.83,0,0,1,0,52.1V4.77A6.87,6.87,0,0,1,.36,2.53,3.54,3.54,0,0,1,1.15,1.2,3.41,3.41,0,0,1,2.28.46,6.71,6.71,0,0,1,4,.06,11.72,11.72,0,0,1,5.49,0Zm9,21.88v8.17a7.31,7.31,0,0,0,.25,2.13,3.56,3.56,0,0,0,2.43,2.55,5.79,5.79,0,0,0,1.75.3H45a6.19,6.19,0,0,0,1.48-.19,3.6,3.6,0,0,0,2.73-2.49,6.33,6.33,0,0,0,.3-1.93v-6c0-.25,0-.25-.26-.25H45.81q-.16,0-.15.15V30a3.31,3.31,0,0,1,0,.44,1.17,1.17,0,0,1-1.09,1.1,8.9,8.9,0,0,1-1.46,0,1.16,1.16,0,0,1-1.08-1,3.25,3.25,0,0,1,0-.7v-16c0-.14,0-.28,0-.42a1.19,1.19,0,0,1,1.08-1.21,5.1,5.1,0,0,1,1.46,0,1.17,1.17,0,0,1,1.07,1.16c0,.17,0,.36,0,.54v4.54c0,.3,0,.3.29.3h3.3c.28,0,.28,0,.28-.27V13.33a6.34,6.34,0,0,0-.25-1.79,3.49,3.49,0,0,0-2.15-2.42,5.53,5.53,0,0,0-1.55-.35,29,29,0,0,0-2.95,0,6.2,6.2,0,0,0-1.42.17,3.67,3.67,0,0,0-2.92,2.88,7.74,7.74,0,0,0-.2,1.92Zm-18.75,0V34.51c0,.31,0,.31.31.31h3.34c.32,0,.29,0,.29-.29V25.7c0-.26,0-.26.26-.26.61,0,1.21,0,1.81,0a7.9,7.9,0,0,0,1.61-.14A3.71,3.71,0,0,0,30,22.38a8.27,8.27,0,0,0,.2-2v-6a10.24,10.24,0,0,0-.16-2.21,3.68,3.68,0,0,0-2.54-2.91A7,7,0,0,0,25.41,9H19.63c-.41,0-.36,0-.36.35ZM12.5,31.2a.22.22,0,0,1,0-.08V23.69c0-.24,0-.24.24-.25h4.14c.24,0,.24,0,.25-.24v-3c0-.38,0-.32-.35-.33h-4c-.3,0-.25,0-.25-.23V12.69c0-.11,0-.15.15-.15h4.42c.25,0,.25,0,.25-.24,0-1,0-2,0-3,0-.39.06-.35-.35-.35H9c-.49,0-.42-.07-.42.41V34.54c0,.28,0,.28.28.28h8.26c.28,0,.28,0,.28-.27v-3c0-.32,0-.27-.28-.27H12.83A.77.77,0,0,1,12.5,31.2ZM32,21.91V34.49c0,.32-.05.33.32.33h3.34c.27,0,.27,0,.28-.28V9.22c0-.25,0-.26-.19-.26H32.19C32,9,32,9,32,9.16V21.91Zm2.45,19.21H32.38c-.12,0-.17.05-.22.14-.27.45-.56.9-.83,1.35s-.64,1-1,1.55a1.46,1.46,0,0,1-.3-.43c-.5-.81-1-1.62-1.5-2.43a.33.33,0,0,0-.33-.19H26.56c-.35,0-.3,0-.3.29v7.27c0,.25,0,.25.24.25H28c.32,0,.34.06.34-.31,0-1.32,0-2.63,0-3.94v-.24c.72,1,1.35,2,2,3l2-3.08a.65.65,0,0,1,0,.35v3.94c0,.25,0,.25.25.25h1.52c.36,0,.31,0,.31-.32v-7.5ZM40.21,58.2H18a.27.27,0,0,0,.16.1l3.93,1.35,6.57,2.26a.64.64,0,0,0,.45,0L39.9,58.35A.5.5,0,0,0,40.21,58.2Zm-26-13.82H12.71c-.24,0-.24,0-.24.25v1c0,.27,0,.28.27.28h1.12c.13,0,.18,0,.18.18a4.14,4.14,0,0,0,0,.61c0,.15-.07.22-.2.28a2.2,2.2,0,0,1-3.25-1.6,2.14,2.14,0,0,1,2.67-2.53,2.85,2.85,0,0,1,1.09.57c.12.09.19.08.28,0,.33-.41.66-.82,1-1.22.09-.11.06-.16,0-.23a4.51,4.51,0,0,0-1.44-.79A5,5,0,0,0,12,41,4,4,0,0,0,8.48,45.7,3.71,3.71,0,0,0,9.67,48,4.08,4.08,0,0,0,12,49a5.18,5.18,0,0,0,3.82-1,.38.38,0,0,0,.16-.32c0-1,0-2.06,0-3.08,0-.16-.05-.23-.22-.22ZM36,45h0V48c0,.26,0,.53,0,.79s0,.18.17.18h5.91c.12,0,.17,0,.17-.17,0-.48,0-1,0-1.43,0-.15-.07-.18-.19-.17H38.32c-.25,0-.25,0-.25-.24v-.74c0-.42,0-.35.34-.35,1,0,2,0,3.05,0,.35,0,.32,0,.32-.3V44.43c0-.26,0-.26-.26-.26h-3c-.1,0-.21,0-.31,0s-.19-.05-.18-.19v-.92c0-.12,0-.17.16-.17H42c.25,0,.25,0,.26-.26V41.42c0-.29.07-.31-.31-.3H36.15c-.09,0-.14,0-.13.13V45ZM25.39,48.93l-.25-.61c-.51-1.23-1-2.45-1.55-3.68s-.94-2.24-1.4-3.36a.31.31,0,0,0-.34-.22H20.39c-.3,0-.3,0-.41.28-.37.88-.73,1.76-1.1,2.63L17,48.44a2.17,2.17,0,0,0-.17.49h2c.14,0,.18-.08.22-.19.14-.37.29-.74.44-1.12a.22.22,0,0,1,.23-.17h2.73a.23.23,0,0,1,.25.19c.09.23.17.45.27.68s.1.44.26.56.43,0,.65,0ZM43,47.77a4.15,4.15,0,0,0,1.75,1,5.11,5.11,0,0,0,3.3,0A2.23,2.23,0,0,0,49.62,47a2.05,2.05,0,0,0-1.2-2.38l-.53-.22c-.48-.17-1-.26-1.49-.41a2.85,2.85,0,0,1-.69-.25.48.48,0,0,1-.29-.48.51.51,0,0,1,.39-.46,1.25,1.25,0,0,1,.43-.07,3.37,3.37,0,0,1,1.29.29,8.17,8.17,0,0,1,.87.47c.29-.41.57-.81.84-1.21s.22-.25-.09-.47A5,5,0,0,0,45.67,41a2.92,2.92,0,0,0-1.51.62A2.33,2.33,0,0,0,44,45a3.38,3.38,0,0,0,.73.44,9.78,9.78,0,0,0,1.7.5,3.65,3.65,0,0,1,.89.32.48.48,0,0,1,.26.5.49.49,0,0,1-.36.44,1.9,1.9,0,0,1-.53.09,3.65,3.65,0,0,1-2-.57l-.55-.35Z"/><path class="cls-1" d="M23.21,17.18V12.57c0-.09,0-.15.13-.14a12.84,12.84,0,0,1,2,.05,1.12,1.12,0,0,1,1,1,3.64,3.64,0,0,1,0,.57v6.23a4,4,0,0,1,0,.6,1.14,1.14,0,0,1-1.07,1c-.61.06-1.23,0-1.84,0-.09,0-.14,0-.14-.13a1.61,1.61,0,0,0,0-.22Z"/><path class="cls-1" d="M20.18,45.78l.9-2.24L22,45.78Z"/></g></g></svg>