<svg xmlns="http://www.w3.org/2000/svg" viewBox="0 0 82.7 80.66"><defs><style>.cls-1{fill:#e5e031;}</style></defs><g id="Livello_2" data-name="Livello 2"><g id="ICONE_-_Da_scegliere" data-name="ICONE - Da scegliere"><path class="cls-1" d="M0,39.28c.06-.54.12-1.08.17-1.62a39.51,39.51,0,0,1,4-14.44A41,41,0,0,1,27,2.55,38.86,38.86,0,0,1,36.8.26,41.25,41.25,0,0,1,66.56,8.59a40.8,40.8,0,0,1,15.3,24.54A39.28,39.28,0,0,1,82.51,45a40.84,40.84,0,0,1-13.35,27A40.23,40.23,0,0,1,54.73,80.5a2.58,2.58,0,0,1-1.93,0,1.86,1.86,0,0,1-1.12-1.83c0-3.68,0-7.35,0-11a12.12,12.12,0,0,0-1.16-5.84,25,25,0,0,0-1.46-2.17l1.57-.22a24.3,24.3,0,0,0,9.46-3.19,15.39,15.39,0,0,0,6.7-9.3A25.81,25.81,0,0,0,67.6,36.6a15.18,15.18,0,0,0-3.68-8.1.83.83,0,0,1-.2-.94,14.83,14.83,0,0,0-.11-9.13c-.1-.34-.25-.67-.35-1a.48.48,0,0,0-.5-.36,10.34,10.34,0,0,0-4.33.75,29,29,0,0,0-6.26,3.3.93.93,0,0,1-.87.13A38.44,38.44,0,0,0,39,20a36.29,36.29,0,0,0-7.54,1.23.79.79,0,0,1-.71-.13,27.51,27.51,0,0,0-7.49-3.69,9.55,9.55,0,0,0-3.1-.41.57.57,0,0,0-.59.43,15.25,15.25,0,0,0-.37,10.36.57.57,0,0,1-.13.48,16.08,16.08,0,0,0-3.74,7.77,22.34,22.34,0,0,0-.18,5.66,23.42,23.42,0,0,0,1.56,7.15A15.67,15.67,0,0,0,26.49,58a31.47,31.47,0,0,0,7,1.56c.1,0,.19,0,.3.06-.32.38-.64.73-.92,1.11a9,9,0,0,0-1.55,4,.72.72,0,0,1-.51.64,10.09,10.09,0,0,1-6.43.61,8.34,8.34,0,0,1-5-3.87,10.86,10.86,0,0,0-3.68-3.79,5.45,5.45,0,0,0-4.06-.65c-.79.19-.95.66-.42,1.28a4.38,4.38,0,0,0,1.12,1,8.58,8.58,0,0,1,3.17,3.27,32.13,32.13,0,0,1,1.75,3.34A7.74,7.74,0,0,0,22.94,71a18.3,18.3,0,0,0,6.8.13l.64-.09.69-.11v.49c0,2.3,0,4.6.05,6.89.07,2-1.53,2.71-3.1,2.19a37.35,37.35,0,0,1-7.83-3.62,41,41,0,0,1-19-25.64,37.44,37.44,0,0,1-1.11-7.3,4,4,0,0,0-.08-.5Z"/></g></g></svg>