<svg xmlns="http://www.w3.org/2000/svg" viewBox="0 0 42.52 38.15"><defs><style>.cls-1{fill:#e6e132;}</style></defs><g id="Livello_2" data-name="Livello 2"><g id="Livello_1-2" data-name="Livello 1"><path class="cls-1" d="M39,14.66c0-.3,0-.53-.47-.52a5.06,5.06,0,0,1-4.3-2.32,5,5,0,0,1-8.5,0,5.35,5.35,0,0,1-8.89,0,5,5,0,0,1-8.51,0A5.13,5.13,0,0,1,3.9,14.15c-.52,0-.35.36-.37.6a128.48,128.48,0,0,0-.12,16.3,15.29,15.29,0,0,0,.9,4.71A2,2,0,0,0,6,37.19a87.84,87.84,0,0,0,13.93,1,98.53,98.53,0,0,0,16.73-1,1.58,1.58,0,0,0,1.3-1,11.42,11.42,0,0,0,.95-3.8,105.21,105.21,0,0,0,.26-14C39.13,17.17,39,15.91,39,14.66ZM32.68,33.94c-2.81-.36-4.25-2-4.78-4.85-.06-.34-.14-.4-.48-.36a43.32,43.32,0,0,1-12.3,0c-.49-.07-.51.11-.55.48-.47,4-4.51,5.46-7.68,4.56a1.72,1.72,0,0,1-1.22-1.58,9.84,9.84,0,0,1,.46-3.7C6.74,26.25,7.38,24,8,21.76a10.62,10.62,0,0,1,1.86-3.67,4.25,4.25,0,0,1,3.82-1.82,4.2,4.2,0,0,1,3.39,1.3,1.08,1.08,0,0,0,.95.31,45,45,0,0,1,6.36,0,1.24,1.24,0,0,0,1.09-.42,4.94,4.94,0,0,1,7.15.66,12.66,12.66,0,0,1,1.85,3.78c.72,2.66,1.55,5.29,2.15,8C37.36,33.11,36.57,34.44,32.68,33.94Z"/><path class="cls-1" d="M21.49,20.58c-.2-.21-.36-.15-.54,0A41.55,41.55,0,0,0,16.8,25h.82c1.55,0,1.56,0,1.62,1.53,0,.35,0,.63.47.62,1,0,2.06,0,3.08,0,.32,0,.44-.12.45-.45,0-.57-.28-1.36.15-1.63S24.57,25,25.17,25h.47A40,40,0,0,0,21.49,20.58Z"/><path class="cls-1" d="M37.52.65A1.81,1.81,0,0,0,36.39.22Q21.33-.2,6.27.21a2.14,2.14,0,0,0-1.4.5A32.56,32.56,0,0,0,1.61,4,5.68,5.68,0,0,0,0,8.64a4.65,4.65,0,0,0,3.65,4.07A4.32,4.32,0,0,0,8.13,10c.11-.29.09-.65.37-.87a4.23,4.23,0,0,0,4.13,3.61,4,4,0,0,0,2.74-1A4.36,4.36,0,0,0,16.81,9c.66,2.35,2,3.72,4.28,3.78C23.5,12.8,25,11.38,25.67,9a4.25,4.25,0,0,0,4.16,3.79A4.36,4.36,0,0,0,34,9c.15.48.22.73.3,1a4.26,4.26,0,0,0,4.57,2.75c3.55-.7,4.38-4.93,3-7.19A18.23,18.23,0,0,0,37.52.65Z"/></g></g></svg>