<svg xmlns="http://www.w3.org/2000/svg" viewBox="0 0 166.14 167.92"><defs><style>.cls-1{fill:#e5e032;}</style></defs><g id="Livello_2" data-name="Livello 2"><g id="ICONE_-_Da_scegliere" data-name="ICONE - Da scegliere"><path class="cls-1" d="M2.84,106.84l4.56,1.89,23.88,10c1,.41,2,.84,3,1.23a.93.93,0,0,1,.61.75A23.68,23.68,0,0,0,54.41,139a23.72,23.72,0,0,0,27-24,1.15,1.15,0,0,1,.54-1.06q13.64-9.78,27.25-19.59a1.65,1.65,0,0,1,1-.33,31.4,31.4,0,0,0,30.68-24.37,30.93,30.93,0,0,0-6.86-28A29.68,29.68,0,0,0,115.9,31.18a30.36,30.36,0,0,0-27.35,8.44A30.56,30.56,0,0,0,79.33,57.7,26,26,0,0,0,79,62.11a1.78,1.78,0,0,1-.36,1.11q-9.57,14-19.12,28a1.06,1.06,0,0,1-1,.54A22.68,22.68,0,0,0,45,95.55a1,1,0,0,1-1,0Q33.68,91.28,23.38,87L.76,77.56c-.1,0-.19-.1-.29-.13C0,77.34,0,77.09,0,76.67A84,84,0,0,1,43.63,9.92,81.39,81.39,0,0,1,65.72,1.79,82.84,82.84,0,0,1,86,.06a82.41,82.41,0,0,1,52.89,21.73,83.91,83.91,0,0,1,26.09,47.93,85.14,85.14,0,0,1,1.18,15.86,83.92,83.92,0,0,1-19.26,52.1,83,83,0,0,1-24.08,20,82.71,82.71,0,0,1-73.7,3,82.75,82.75,0,0,1-22-14.49,84.17,84.17,0,0,1-24-38.58C3,107.42,2.94,107.21,2.84,106.84Z"/><path class="cls-1" d="M131.28,62.3a20.91,20.91,0,0,1-15,20.23A21,21,0,0,1,89.55,64.22a20.67,20.67,0,0,1,7.31-18,19.7,19.7,0,0,1,10.86-4.84,20.35,20.35,0,0,1,17,5.66A20.72,20.72,0,0,1,131,58.85,20.94,20.94,0,0,1,131.28,62.3ZM110.36,78.1A15.83,15.83,0,1,0,94.7,62.26,15.75,15.75,0,0,0,110.36,78.1Z"/><path class="cls-1" d="M42,123.14c2.38,1,4.62,2,6.87,2.87A40.53,40.53,0,0,0,54,128a13.11,13.11,0,0,0,9.14-24.36c-1.53-.82-3.19-1.38-4.79-2.06-2.05-.87-4.1-1.72-6.15-2.57l-.53-.25A17.48,17.48,0,0,1,74,108.15a17.89,17.89,0,0,1-9.21,23.65A17.5,17.5,0,0,1,42,123.14Z"/></g></g></svg>